HIERARCHY
ROOT mixamorig:Hips
{
  OFFSET 0.000000 0.000000 0.000000
  CHANNELS 6 Xposition Yposition Zposition Xrotation Yrotation Zrotation
  JOINT mixamorig:Spine
  {
    OFFSET -2.607334 24.198518 2.803427
    CHANNELS 3 Xrotation Yrotation Zrotation
    JOINT mixamorig:Spine2
    {
      OFFSET -2.607334 24.198518 2.803427
      CHANNELS 3 Xrotation Yrotation Zrotation
      JOINT mixamorig:Neck
      {
        OFFSET 0.000000 5.000000 0.000000
        CHANNELS 3 Xrotation Yrotation Zrotation
        JOINT mixamorig:Head
        {
          OFFSET 0.000000 10.000000 0.000000
          CHANNELS 3 Xrotation Yrotation Zrotation
          End Site
          {
            OFFSET 0.000000 3.000000 0.000000
          }
        }
      }
      JOINT mixamorig:LeftShoulder
      {
        OFFSET 14.445449 1.363860 -7.204924
        CHANNELS 3 Xrotation Yrotation Zrotation
        JOINT mixamorig:LeftArm
        {
          OFFSET 8.587155 -6.647706 -12.646066
          CHANNELS 3 Xrotation Yrotation Zrotation
          JOINT mixamorig:LeftForeArm
          {
            OFFSET -12.249736 3.490853 -10.235041
            CHANNELS 3 Xrotation Yrotation Zrotation
            JOINT mixamorig:LeftHand
            {
              OFFSET -4.025522 2.029083 -1.265595
              CHANNELS 3 Xrotation Yrotation Zrotation
              End Site
              {
                OFFSET -1.207657 0.608725 -0.379679
              }
            }
          }
        }
      }
      JOINT mixamorig:RightShoulder
      {
        OFFSET -14.445449 1.363860 7.204924
        CHANNELS 3 Xrotation Yrotation Zrotation
        JOINT mixamorig:RightArm
        {
          OFFSET -0.912881 -23.734087 -11.309987
          CHANNELS 3 Xrotation Yrotation Zrotation
          JOINT mixamorig:RightForeArm
          {
            OFFSET 1.700208 13.342467 -20.550903
            CHANNELS 3 Xrotation Yrotation Zrotation
            JOINT mixamorig:RightHand
            {
              OFFSET 2.846418 6.531953 -4.513677
              CHANNELS 3 Xrotation Yrotation Zrotation
              End Site
              {
                OFFSET 0.853925 1.959586 -1.354103
              }
            }
          }
        }
      }
    }
  }
  JOINT mixamorig:LeftUpLeg
  {
    OFFSET 9.244047 0.416567 -0.915531
    CHANNELS 3 Xrotation Yrotation Zrotation
    JOINT mixamorig:LeftLeg
    {
      OFFSET 12.496326 -40.539871 -10.306095
      CHANNELS 3 Xrotation Yrotation Zrotation
      JOINT mixamorig:LeftFoot
      {
        OFFSET 16.022609 -36.389709 1.174949
        CHANNELS 3 Xrotation Yrotation Zrotation
        JOINT mixamorig:LeftToeBase
        {
          OFFSET 0.321405 -4.824194 -7.621081
          CHANNELS 3 Xrotation Yrotation Zrotation
          End Site
          {
            OFFSET 0.096421 -1.447258 -2.286324
          }
        }
      }
    }
  }
  JOINT mixamorig:RightUpLeg
  {
    OFFSET -9.244047 -0.416567 0.915531
    CHANNELS 3 Xrotation Yrotation Zrotation
    JOINT mixamorig:RightLeg
    {
      OFFSET -10.138142 -28.067208 1.679213
      CHANNELS 3 Xrotation Yrotation Zrotation
      JOINT mixamorig:RightFoot
      {
        OFFSET -4.297917 -39.464900 21.092298
        CHANNELS 3 Xrotation Yrotation Zrotation
        JOINT mixamorig:RightToeBase
        {
          OFFSET -8.545734 -3.908527 -4.135349
          CHANNELS 3 Xrotation Yrotation Zrotation
          End Site
          {
            OFFSET -2.563720 -1.172558 -1.240605
          }
        }
      }
    }
  }
}
MOTION
Frames: 10
Frame Time: 0.083333
0.120595 0.264865 0.062055 -9.902524 -0.837170 -7.851945 0.000000 0.000000 0.000000 8.617286 -19.226974 6.738780 -5.906248 -12.048891 4.971733 -6.549620 -11.585590 6.151216 -29.970604 5.246131 -6.161762 54.930628 -11.056406 -34.323108 -25.582618 13.524417 2.411688 0.000000 0.000000 0.000000 19.183638 26.966757 -16.733774 -12.231387 -39.187984 -7.505791 -3.765925 17.361836 -1.486568 0.000000 0.000000 0.000000 18.419746 2.689647 17.117228 -18.684462 -1.548614 -17.178726 0.803026 -23.574412 31.607362 0.000000 0.000000 0.000000 9.606783 2.556715 13.951672 -20.509882 -8.314408 -22.371318 13.481100 -11.628764 46.155046 0.000000 0.000000 0.000000
0.117968 0.274200 0.052917 -11.689582 -1.152951 -7.788445 0.000000 0.000000 0.000000 8.421320 -18.033140 6.026775 -5.720026 -11.417614 5.028050 -6.368909 -10.956098 6.111653 -28.125920 3.969162 -6.091127 54.338593 -13.686854 -35.039707 -25.926029 14.363070 2.297328 0.000000 0.000000 0.000000 20.332857 24.436800 -13.602395 -13.847381 -34.616652 -9.241859 -3.526069 16.017605 -1.206520 0.000000 0.000000 0.000000 19.265811 2.979111 16.573083 -17.625385 -1.601478 -16.451052 2.086927 -24.592153 31.392861 0.000000 0.000000 0.000000 10.527253 3.245508 12.779884 -18.553130 -8.674880 -21.111870 13.751622 -11.747057 43.276909 0.000000 0.000000 0.000000
0.115505 0.273550 0.021263 -13.484201 -1.467805 -7.710731 0.000000 0.000000 0.000000 8.224247 -16.810355 5.355646 -5.497282 -10.755407 5.124146 -6.154233 -10.294844 6.105701 -24.448286 2.618709 -5.559667 49.568851 -14.782227 -32.858942 -22.619961 14.389680 -1.532470 0.000000 0.000000 0.000000 21.438586 21.922423 -10.491158 -14.791121 -30.035577 -10.649509 -3.364263 14.667651 -0.961881 0.000000 0.000000 0.000000 20.130404 3.254865 16.008069 -16.570855 -1.636716 -15.716392 3.319978 -25.602039 31.116309 0.000000 0.000000 0.000000 11.466043 3.910830 11.587447 -16.562278 -8.960242 -19.791420 13.917440 -11.846716 40.518862 0.000000 0.000000 0.000000
0.109445 0.269082 0.008576 -15.282938 -1.780582 -7.618882 0.000000 0.000000 0.000000 8.027570 -15.561744 4.729708 -5.243373 -10.065631 5.257063 -5.907841 -9.606047 6.133456 -14.555192 1.163655 -3.434535 30.585286 -10.170221 -20.679318 -6.650023 11.123564 -18.062090 0.000000 0.000000 0.000000 22.506303 19.436106 -7.415697 -15.159873 -25.516930 -11.837851 -3.280288 13.324515 -0.754586 0.000000 0.000000 0.000000 21.010797 3.514692 15.423170 -15.521501 -1.654534 -14.975573 4.501171 -26.601992 30.780630 0.000000 0.000000 0.000000 12.421466 4.550287 10.375856 -14.541656 -9.167823 -18.415008 13.979208 -11.934197 37.880141 0.000000 0.000000 0.000000
0.109614 0.256221 0.028911 -17.082303 -2.090141 -7.513103 0.000000 0.000000 0.000000 7.832799 -14.290766 4.153051 -4.963949 -9.352257 5.423505 -5.632598 -8.894546 6.194497 0.000000 0.000000 0.000000 0.000000 0.000000 0.000000 20.400501 4.007610 -45.243041 0.000000 0.000000 0.000000 23.541492 16.988697 -4.390631 -15.031639 -21.123106 -12.891647 -3.272646 12.000416 -0.585966 0.000000 0.000000 0.000000 21.904117 3.756489 14.819659 -14.477915 -1.655197 -14.229398 5.629856 -27.590305 30.388900 0.000000 0.000000 0.000000 13.391620 5.161610 9.146864 -12.495916 -9.295589 -16.988154 13.938543 -12.014861 35.357646 0.000000 0.000000 0.000000
0.104478 0.232786 0.078356 -18.878794 -2.395367 -7.393722 0.000000 0.000000 0.000000 7.641424 -13.001176 3.629472 -4.664755 -8.619878 5.619930 -5.331900 -8.165742 6.287873 0.000000 0.000000 0.000000 0.000000 0.000000 0.000000 22.120223 1.166432 -45.899818 0.000000 0.000000 0.000000 24.549345 14.589120 -1.429326 -14.470119 -16.907566 -13.875217 -3.338603 10.706871 -0.456690 0.000000 0.000000 0.000000 22.807375 3.978307 14.199082 -13.440658 -1.639026 -13.478648 6.705624 -28.565583 29.944297 0.000000 0.000000 0.000000 14.374403 5.742689 7.902470 -10.429947 -9.342176 -15.516768 13.797860 -12.093011 32.946415 0.000000 0.000000 0.000000
0.084040 0.207781 0.120661 -21.331219 -2.790919 -7.155871 0.000000 0.000000 0.000000 7.376194 -10.858782 3.220822 -4.059525 -8.016642 5.940254 -4.755685 -7.595441 6.470921 -0.481523 -1.318810 -0.416956 2.654302 -2.090111 -2.178178 20.837191 0.931214 -43.821867 0.000000 0.000000 0.000000 25.941497 11.806703 1.095470 -13.485587 -13.216986 -14.289851 -3.272253 9.323944 -0.623293 0.000000 0.000000 0.000000 24.070562 4.202028 13.226751 -12.260764 -1.651249 -12.262145 8.143207 -28.556753 28.248980 0.000000 0.000000 0.000000 16.189107 6.360635 6.519060 -8.397074 -9.017976 -13.730539 14.112098 -12.843383 29.435883 0.000000 0.000000 0.000000
0.060844 0.191399 0.137686 -26.066103 -3.491211 -6.442039 0.000000 0.000000 0.000000 6.835848 -5.487736 3.194492 -2.221189 -7.791426 6.706825 -3.068850 -7.534223 6.953779 -2.238213 -7.530327 -2.357867 13.771539 -11.027025 -10.812781 10.171214 9.656479 -33.748036 0.000000 0.000000 0.000000 28.519184 7.299443 2.091934 -11.720727 -11.042292 -12.673756 -2.578727 7.591812 -1.616372 0.000000 0.000000 0.000000 26.532793 4.417182 10.929822 -10.552935 -1.802796 -9.222526 10.876610 -24.811536 21.988591 0.000000 0.000000 0.000000 20.975826 7.093868 4.743640 -6.648813 -7.485911 -10.945133 16.129058 -15.964959 21.789454 0.000000 0.000000 0.000000
0.046217 0.186030 0.138550 -32.448850 -4.346110 -5.052858 0.000000 0.000000 0.000000 6.050851 3.441721 3.898100 1.264388 -7.567471 8.130624 0.167672 -7.694560 7.929567 -3.990443 -18.676566 -5.910679 29.677218 -24.449208 -21.349432 -5.106681 24.844966 -21.426289 0.000000 0.000000 0.000000 31.264975 0.679845 0.998328 -9.014223 -10.764014 -8.643612 -1.031580 5.724005 -3.099543 0.000000 0.000000 0.000000 29.727878 4.397962 7.163834 -8.698769 -2.156204 -3.970927 14.813695 -16.541294 10.610823 0.000000 0.000000 0.000000 28.396585 7.590430 2.821788 -5.647589 -4.550840 -7.261224 19.014094 -21.149505 10.892741 0.000000 0.000000 0.000000
0.038584 0.186107 0.146973 -32.844173 -4.243212 -4.096944 0.000000 0.000000 0.000000 5.848466 7.252937 4.911242 3.411398 -5.748374 9.357293 2.386252 -6.235380 8.982529 -1.192799 -21.181918 -7.197514 23.043784 -20.532398 -10.712658 5.315894 19.359717 -33.031223 0.000000 0.000000 0.000000 29.405778 -3.319822 0.747195 -7.543313 -8.907892 -6.656915 0.128019 4.868211 -2.588884 0.000000 0.000000 0.000000 29.384617 3.802496 5.587548 -9.090288 -2.452504 -1.120871 16.382719 -12.436147 5.625048 0.000000 0.000000 0.000000 29.492247 6.887711 2.035454 -5.053019 -3.049170 -5.215625 16.307744 -21.379839 9.678036 0.000000 0.000000 0.000000
